<svg xmlns="http://www.w3.org/2000/svg" width="120" height="120" viewBox="0 0 120 120">
  <g fill="#FFFFFF">
    <circle opacity=".19" cx="60" cy="60" r="60"/>
    <path d="M86.033,57.265l-15.857-9.082c-2.625-1.505-6.92-3.965-9.545-5.469l-15.858-9.081	C42.148,32.128,40,33.357,40,36.366v18.165c0,3.007,0,7.928,0,10.936v18.165c0,3.009,2.147,4.237,4.772,2.734l15.858-9.084	c2.625-1.505,6.92-3.964,9.545-5.468l15.857-9.082c1.313-0.752,1.97-1.742,1.97-2.733C88.002,59.007,87.346,58.017,86.033,57.265z M59.979,49.993c0.389,0,0.705,0.315,0.705,0.704c0,0.389-0.315,0.703-0.705,0.703c-0.388,0-0.704-0.314-0.704-0.703	C59.275,50.308,59.59,49.993,59.979,49.993z M60.043,52.953c0.666,0,1.207,0.539,1.207,1.207c0,0.667-0.541,1.207-1.207,1.207	c-0.667,0-1.208-0.54-1.208-1.207C58.835,53.492,59.376,52.953,60.043,52.953z M56.021,49.993c0.389,0,0.704,0.315,0.704,0.704	c0,0.389-0.315,0.703-0.704,0.703s-0.704-0.314-0.704-0.703C55.317,50.308,55.632,49.993,56.021,49.993z M56.084,52.953	c0.666,0,1.207,0.539,1.207,1.207c0,0.667-0.54,1.207-1.207,1.207s-1.207-0.54-1.208-1.207	C54.876,53.492,55.417,52.953,56.084,52.953z M48.705,62.68c-0.389,0-0.704-0.312-0.704-0.703c0-0.389,0.315-0.705,0.704-0.705	c0.388,0,0.704,0.317,0.704,0.705C49.409,62.367,49.094,62.68,48.705,62.68z M48.705,58.722c-0.389,0-0.704-0.315-0.704-0.705	c0-0.389,0.315-0.705,0.704-0.705c0.388,0,0.704,0.316,0.704,0.705C49.409,58.407,49.094,58.722,48.705,58.722z M52.166,63.123	c-0.632,0-1.144-0.512-1.144-1.145s0.512-1.146,1.144-1.146c0.631,0,1.144,0.514,1.144,1.146S52.798,63.123,52.166,63.123z M52.166,59.163c-0.632,0-1.144-0.512-1.144-1.146c0-0.631,0.512-1.145,1.144-1.145c0.631,0,1.144,0.514,1.144,1.145	C53.31,58.651,52.798,59.163,52.166,59.163z M56.021,70.004c-0.389,0-0.704-0.318-0.704-0.707s0.315-0.703,0.704-0.703	s0.704,0.314,0.704,0.703S56.41,70.004,56.021,70.004z M56.084,67.041c-0.667,0-1.208-0.54-1.208-1.207s0.541-1.208,1.208-1.208	s1.207,0.541,1.207,1.208S56.751,67.041,56.084,67.041z M56.147,63.729c-0.944,0-1.71-0.768-1.71-1.713	c0-0.943,0.765-1.709,1.71-1.709s1.71,0.764,1.71,1.709S57.091,63.729,56.147,63.729z M56.147,59.689	c-0.944,0-1.71-0.766-1.71-1.712c0-0.944,0.765-1.71,1.71-1.71s1.71,0.765,1.71,1.71C57.857,58.923,57.091,59.689,56.147,59.689z M59.979,70.004c-0.389,0-0.704-0.318-0.704-0.707s0.315-0.703,0.704-0.703c0.39,0,0.705,0.314,0.705,0.703	S60.369,70.004,59.979,70.004z M60.043,67.041c-0.668,0-1.208-0.54-1.208-1.207s0.541-1.208,1.208-1.208	c0.666,0,1.207,0.541,1.207,1.208S60.709,67.041,60.043,67.041z M60.105,63.729c-0.944,0-1.71-0.768-1.71-1.713	c0-0.943,0.766-1.709,1.71-1.709c0.946,0,1.711,0.764,1.711,1.709S61.05,63.729,60.105,63.729z M60.105,59.689	c-0.944,0-1.71-0.766-1.71-1.712c0-0.944,0.766-1.71,1.71-1.71c0.946,0,1.711,0.765,1.711,1.71	C61.816,58.923,61.05,59.689,60.105,59.689z M63.836,63.123c-0.633,0-1.145-0.512-1.145-1.145s0.512-1.146,1.145-1.146	c0.631,0,1.143,0.514,1.145,1.146C64.98,62.611,64.467,63.123,63.836,63.123z M63.836,59.163c-0.633,0-1.145-0.512-1.145-1.146	c0-0.631,0.512-1.145,1.145-1.145c0.631,0,1.143,0.514,1.145,1.145C64.98,58.651,64.467,59.163,63.836,59.163z M67.297,62.68	c-0.389,0-0.705-0.312-0.705-0.703c0-0.389,0.316-0.705,0.705-0.705S68,61.589,68,61.979S67.686,62.68,67.297,62.68z M67.297,58.722	c-0.389,0-0.705-0.316-0.705-0.705c0-0.389,0.316-0.705,0.705-0.705S68,57.628,68,58.017C68,58.407,67.686,58.722,67.297,58.722z"/>
  </g>
</svg>
