<svg baseProfile="tiny" xmlns="http://www.w3.org/2000/svg" width="20" height="20" viewBox="0 0 20 20">
  <path fill="none" stroke="#FFFFFF" stroke-width="2" stroke-miterlimit="10" d="M2.286 10.17C1.46 9.364 1 8.293 1 7.167c0-1.128.46-2.199 1.295-3.015l.112-.106c.814-.742 1.896-1.153 3.041-1.153 1.204 0 2.324.447 3.154 1.259l1.4 1.356 1.395-1.353c.822-.803 1.973-1.263 3.158-1.264 1.184 0 2.334.459 3.152 1.259.836.816 1.295 1.887 1.295 3.014s-.459 2.198-1.295 3.014l-7.706 7.333-7.715-7.341z"/>
</svg>
