<?xml version="1.0" encoding="utf-8"?>
<!-- Generator: Adobe Illustrator 16.0.0, SVG Export Plug-In . SVG Version: 6.00 Build 0)  -->
<!DOCTYPE svg PUBLIC "-//W3C//DTD SVG 1.1//EN" "http://www.w3.org/Graphics/SVG/1.1/DTD/svg11.dtd">
<svg version="1.1" id="Layer_1" xmlns="http://www.w3.org/2000/svg" xmlns:xlink="http://www.w3.org/1999/xlink" x="0px" y="0px"
	 width="19px" height="19px" viewBox="0 0 19 19" style="enable-background:new 0 0 19 19;" xml:space="preserve">
<style type="text/css">
<![CDATA[
	.st0{clip-path:url(#SVGID_2_);}
	.st1{clip-path:url(#SVGID_2_);fill:#FFC83D;}
]]>
</style>
<g>
	<defs>
		<rect id="SVGID_1_" width="19" height="19"/>
	</defs>
	<clipPath id="SVGID_2_">
		<use xlink:href="#SVGID_1_"  style="overflow:visible;"/>
	</clipPath>
	<path class="st1" d="M9.5,18.6c-5,0-9.1-4.1-9.1-9.1c0-5,4.1-9.1,9.1-9.1s9.1,4.1,9.1,9.1C18.6,14.5,14.5,18.6,9.5,18.6"/>
	<path class="st0" d="M9.5,0.9c4.8,0,8.6,3.9,8.6,8.6c0,4.8-3.9,8.6-8.6,8.6c-4.8,0-8.6-3.9-8.6-8.6C0.9,4.7,4.7,0.9,9.5,0.9 M9.5,0
		C4.3,0,0,4.3,0,9.5S4.3,19,9.5,19S19,14.7,19,9.5S14.7,0,9.5,0"/>
	<path class="st1" d="M7.1,8.6C7,8.6,6.7,8.2,6.7,7.3S7,6,7.1,6s0.4,0.5,0.4,1.3S7.2,8.6,7.1,8.6"/>
	<path class="st0" d="M7.1,5.6c-0.5,0-0.9,0.8-0.9,1.7c0,1,0.4,1.7,0.9,1.7S8,8.3,8,7.3C8,6.4,7.6,5.6,7.1,5.6"/>
	<path class="st1" d="M11.4,8.6c-0.1,0-0.4-0.5-0.4-1.3S11.3,6,11.4,6c0.1,0,0.4,0.5,0.4,1.3S11.6,8.6,11.4,8.6"/>
	<path class="st0" d="M11.4,5.6c-0.5,0-0.9,0.8-0.9,1.7c0,1,0.4,1.7,0.9,1.7c0.5,0,0.9-0.8,0.9-1.7C12.3,6.4,11.9,5.6,11.4,5.6"/>
	<path class="st1" d="M12.7,12.1c0,1.3-1.4,2.4-3.2,2.4c-1.8,0-3.2-1.1-3.2-2.4"/>
	<path class="st0" d="M9.5,14.9c-2,0-3.6-1.3-3.6-2.8c0-0.2,0.2-0.4,0.4-0.4c0.2,0,0.4,0.2,0.4,0.4C6.7,13.2,8,14,9.5,14
		s2.8-0.9,2.8-1.9c0-0.2,0.2-0.4,0.4-0.4c0.2,0,0.4,0.2,0.4,0.4C13.1,13.6,11.5,14.9,9.5,14.9"/>
</g>
</svg>
